<svg id="visual" viewBox="0 0 900 600" width="900" height="600" xmlns="http://www.w3.org/2000/svg" xmlns:xlink="http://www.w3.org/1999/xlink" version="1.1"><g stroke-width="1" stroke-linejoin="bevel"><path d="M491 291L394 284L400 362Z" fill="#91969b" stroke="#91969b"></path><path d="M394 284L338 305L400 362Z" fill="#777d84" stroke="#777d84"></path><path d="M491 291L384 227L394 284Z" fill="#777d84" stroke="#777d84"></path><path d="M394 284L339 239L338 305Z" fill="#2f3943" stroke="#2f3943"></path><path d="M429 486L477 438L400 362Z" fill="#ffffff" stroke="#ffffff"></path><path d="M400 362L477 438L491 291Z" fill="#e2e4e5" stroke="#e2e4e5"></path><path d="M384 227L339 239L394 284Z" fill="#ffffff" stroke="#ffffff"></path><path d="M632 229L503 176L491 291Z" fill="#2f3943" stroke="#2f3943"></path><path d="M491 291L503 176L384 227Z" fill="#91969b" stroke="#91969b"></path><path d="M384 227L274 137L339 239Z" fill="#5e656d" stroke="#5e656d"></path><path d="M602 396L601 310L491 291Z" fill="#2f3943" stroke="#2f3943"></path><path d="M307 429L429 486L400 362Z" fill="#abafb3" stroke="#abafb3"></path><path d="M223 429L307 429L338 305Z" fill="#464e58" stroke="#464e58"></path><path d="M338 305L307 429L400 362Z" fill="#464e58" stroke="#464e58"></path><path d="M429 486L505 484L477 438Z" fill="#ffffff" stroke="#ffffff"></path><path d="M477 438L602 396L491 291Z" fill="#464e58" stroke="#464e58"></path><path d="M505 484L602 396L477 438Z" fill="#abafb3" stroke="#abafb3"></path><path d="M625 124L496 137L503 176Z" fill="#abafb3" stroke="#abafb3"></path><path d="M503 176L496 137L384 227Z" fill="#19242f" stroke="#19242f"></path><path d="M307 429L310 486L429 486Z" fill="#19242f" stroke="#19242f"></path><path d="M677 299L632 229L601 310Z" fill="#c6c9cc" stroke="#c6c9cc"></path><path d="M601 310L632 229L491 291Z" fill="#e2e4e5" stroke="#e2e4e5"></path><path d="M505 484L610 473L602 396Z" fill="#5e656d" stroke="#5e656d"></path><path d="M602 396L677 299L601 310Z" fill="#464e58" stroke="#464e58"></path><path d="M730 438L677 299L602 396Z" fill="#00101c" stroke="#00101c"></path><path d="M175 319L223 429L338 305Z" fill="#c6c9cc" stroke="#c6c9cc"></path><path d="M307 429L223 429L310 486Z" fill="#abafb3" stroke="#abafb3"></path><path d="M424 73L274 137L384 227Z" fill="#abafb3" stroke="#abafb3"></path><path d="M339 239L175 319L338 305Z" fill="#5e656d" stroke="#5e656d"></path><path d="M520 0L424 73L496 137Z" fill="#464e58" stroke="#464e58"></path><path d="M496 137L424 73L384 227Z" fill="#c6c9cc" stroke="#c6c9cc"></path><path d="M192 166L175 319L339 239Z" fill="#5e656d" stroke="#5e656d"></path><path d="M704 164L625 124L632 229Z" fill="#e2e4e5" stroke="#e2e4e5"></path><path d="M632 229L625 124L503 176Z" fill="#777d84" stroke="#777d84"></path><path d="M429 486L467 600L505 484Z" fill="#00101c" stroke="#00101c"></path><path d="M505 484L599 600L610 473Z" fill="#2f3943" stroke="#2f3943"></path><path d="M412 600L467 600L429 486Z" fill="#e2e4e5" stroke="#e2e4e5"></path><path d="M412 600L429 486L310 486Z" fill="#464e58" stroke="#464e58"></path><path d="M293 600L412 600L310 486Z" fill="#2f3943" stroke="#2f3943"></path><path d="M274 137L192 166L339 239Z" fill="#464e58" stroke="#464e58"></path><path d="M234 91L192 166L274 137Z" fill="#00101c" stroke="#00101c"></path><path d="M668 600L702 475L610 473Z" fill="#5e656d" stroke="#5e656d"></path><path d="M610 473L702 475L602 396Z" fill="#91969b" stroke="#91969b"></path><path d="M677 299L704 164L632 229Z" fill="#2f3943" stroke="#2f3943"></path><path d="M771 173L704 164L677 299Z" fill="#ffffff" stroke="#ffffff"></path><path d="M339 0L234 91L274 137Z" fill="#5e656d" stroke="#5e656d"></path><path d="M702 475L730 438L602 396Z" fill="#2f3943" stroke="#2f3943"></path><path d="M192 166L128 294L175 319Z" fill="#2f3943" stroke="#2f3943"></path><path d="M175 319L139 421L223 429Z" fill="#91969b" stroke="#91969b"></path><path d="M171 528L310 486L223 429Z" fill="#ffffff" stroke="#ffffff"></path><path d="M231 600L293 600L310 486Z" fill="#19242f" stroke="#19242f"></path><path d="M128 294L139 421L175 319Z" fill="#ffffff" stroke="#ffffff"></path><path d="M467 600L599 600L505 484Z" fill="#00101c" stroke="#00101c"></path><path d="M424 73L339 0L274 137Z" fill="#19242f" stroke="#19242f"></path><path d="M520 0L361 0L424 73Z" fill="#00101c" stroke="#00101c"></path><path d="M573 0L496 137L625 124Z" fill="#5e656d" stroke="#5e656d"></path><path d="M573 0L520 0L496 137Z" fill="#464e58" stroke="#464e58"></path><path d="M361 0L339 0L424 73Z" fill="#2f3943" stroke="#2f3943"></path><path d="M771 173L719 131L704 164Z" fill="#e2e4e5" stroke="#e2e4e5"></path><path d="M704 164L719 131L625 124Z" fill="#e2e4e5" stroke="#e2e4e5"></path><path d="M139 421L171 528L223 429Z" fill="#00101c" stroke="#00101c"></path><path d="M192 166L135 161L128 294Z" fill="#464e58" stroke="#464e58"></path><path d="M234 91L135 161L192 166Z" fill="#c6c9cc" stroke="#c6c9cc"></path><path d="M77 127L135 161L102 0Z" fill="#c6c9cc" stroke="#c6c9cc"></path><path d="M738 0L573 0L625 124Z" fill="#19242f" stroke="#19242f"></path><path d="M730 438L787 296L677 299Z" fill="#5e656d" stroke="#5e656d"></path><path d="M171 528L231 600L310 486Z" fill="#777d84" stroke="#777d84"></path><path d="M806 483L835 387L730 438Z" fill="#19242f" stroke="#19242f"></path><path d="M730 438L835 387L787 296Z" fill="#c6c9cc" stroke="#c6c9cc"></path><path d="M599 600L668 600L610 473Z" fill="#abafb3" stroke="#abafb3"></path><path d="M787 296L771 173L677 299Z" fill="#abafb3" stroke="#abafb3"></path><path d="M719 131L738 0L625 124Z" fill="#ffffff" stroke="#ffffff"></path><path d="M139 421L136 527L171 528Z" fill="#2f3943" stroke="#2f3943"></path><path d="M171 528L89 600L231 600Z" fill="#464e58" stroke="#464e58"></path><path d="M0 503L136 527L139 421Z" fill="#5e656d" stroke="#5e656d"></path><path d="M339 0L217 0L234 91Z" fill="#19242f" stroke="#19242f"></path><path d="M806 483L730 438L702 475Z" fill="#abafb3" stroke="#abafb3"></path><path d="M900 222L834 130L771 173Z" fill="#464e58" stroke="#464e58"></path><path d="M764 600L806 483L702 475Z" fill="#777d84" stroke="#777d84"></path><path d="M0 204L0 301L128 294Z" fill="#c6c9cc" stroke="#c6c9cc"></path><path d="M128 294L0 393L139 421Z" fill="#ffffff" stroke="#ffffff"></path><path d="M102 0L135 161L234 91Z" fill="#ffffff" stroke="#ffffff"></path><path d="M668 600L764 600L702 475Z" fill="#5e656d" stroke="#5e656d"></path><path d="M834 130L719 131L771 173Z" fill="#464e58" stroke="#464e58"></path><path d="M834 130L738 0L719 131Z" fill="#abafb3" stroke="#abafb3"></path><path d="M900 222L771 173L787 296Z" fill="#91969b" stroke="#91969b"></path><path d="M0 204L128 294L135 161Z" fill="#abafb3" stroke="#abafb3"></path><path d="M0 301L0 393L128 294Z" fill="#c6c9cc" stroke="#c6c9cc"></path><path d="M0 503L89 600L136 527Z" fill="#ffffff" stroke="#ffffff"></path><path d="M136 527L89 600L171 528Z" fill="#91969b" stroke="#91969b"></path><path d="M77 127L0 204L135 161Z" fill="#464e58" stroke="#464e58"></path><path d="M900 376L900 277L835 387Z" fill="#464e58" stroke="#464e58"></path><path d="M835 387L900 277L787 296Z" fill="#777d84" stroke="#777d84"></path><path d="M900 376L835 387L900 498Z" fill="#19242f" stroke="#19242f"></path><path d="M900 498L835 387L806 483Z" fill="#777d84" stroke="#777d84"></path><path d="M217 0L102 0L234 91Z" fill="#c6c9cc" stroke="#c6c9cc"></path><path d="M77 127L0 110L0 204Z" fill="#5e656d" stroke="#5e656d"></path><path d="M900 277L900 222L787 296Z" fill="#91969b" stroke="#91969b"></path><path d="M0 393L0 503L139 421Z" fill="#777d84" stroke="#777d84"></path><path d="M102 0L0 110L77 127Z" fill="#c6c9cc" stroke="#c6c9cc"></path><path d="M900 600L900 498L806 483Z" fill="#777d84" stroke="#777d84"></path><path d="M900 124L823 0L834 130Z" fill="#00101c" stroke="#00101c"></path><path d="M834 130L823 0L738 0Z" fill="#00101c" stroke="#00101c"></path><path d="M900 222L900 124L834 130Z" fill="#c6c9cc" stroke="#c6c9cc"></path><path d="M0 503L0 600L89 600Z" fill="#00101c" stroke="#00101c"></path><path d="M764 600L900 600L806 483Z" fill="#00101c" stroke="#00101c"></path><path d="M102 0L0 0L0 110Z" fill="#464e58" stroke="#464e58"></path><path d="M900 124L900 0L823 0Z" fill="#5e656d" stroke="#5e656d"></path></g></svg>